<?xml version="1.0" standalone="no"?>
<!DOCTYPE svg PUBLIC "-//W3C//DTD SVG 20010904//EN"
 "http://www.w3.org/TR/2001/REC-SVG-20010904/DTD/svg10.dtd">
<svg version="1.0" xmlns="http://www.w3.org/2000/svg"
 width="320.000000pt" height="320.000000pt" viewBox="0 0 320.000000 320.000000"
 preserveAspectRatio="xMidYMid meet">
<metadata>
Created by potrace 1.14, written by Peter Selinger 2001-2017
</metadata>
<g transform="translate(0.000000,320.000000) scale(0.100000,-0.100000)"
fill="#000000" stroke="none">
<path d="M807 3189 c-62 -15 -137 -58 -187 -108 -89 -89 -120 -183 -120 -363
l0 -118 250 0 250 0 0 -58 0 -59 -326 -314 c-179 -173 -343 -337 -364 -364
-49 -63 -87 -145 -100 -215 -15 -81 -13 -493 2 -487 7 3 140 59 295 126 155
67 284 121 286 121 3 0 7 -161 10 -358 4 -271 8 -372 20 -421 l15 -64 -38 -46
c-78 -94 -100 -170 -100 -346 l0 -115 901 0 901 0 -4 143 c-6 167 -19 210 -88
302 l-47 62 15 64 c11 48 16 155 19 421 3 197 7 358 10 358 2 0 131 -54 286
-121 155 -67 288 -123 295 -126 9 -4 12 43 12 215 0 253 -7 300 -57 402 -40
83 -49 92 -489 518 l-251 242 -6 100 c-18 295 -153 491 -405 589 l-67 26 -440
2 c-242 1 -457 -3 -478 -8z m652 -213 c-125 -51 -215 -151 -249 -275 l-11 -44
-15 29 c-21 41 -61 80 -99 99 -26 12 -70 15 -203 15 -94 0 -173 3 -175 8 -11
18 25 100 57 131 56 55 93 60 441 60 l310 1 -56 -24z m25 -92 c12 -11 16 -35
16 -84 0 -73 -14 -100 -50 -100 -36 0 -50 27 -50 100 0 73 14 100 50 100 10 0
26 -7 34 -16z m401 -103 c149 -67 152 -281 6 -358 -39 -20 -58 -23 -168 -23
l-123 0 0 120 c0 128 11 173 53 219 53 58 156 77 232 42z m-174 -597 c109 -32
203 -113 256 -223 l28 -56 5 -798 5 -798 45 46 c24 25 53 45 65 45 12 0 45
-12 73 -26 56 -28 96 -81 108 -142 l7 -32 -703 0 -702 0 6 32 c12 61 52 114
108 142 28 14 61 26 73 26 12 0 41 -20 65 -45 l45 -46 5 798 5 798 32 66 c52
106 158 193 268 220 53 13 150 9 206 -7z"/>
</g>
</svg>
