
<?xml version="1.0" encoding="UTF-8"?>
<svg fill="white" width="752pt" height="752pt" version="1.1" viewBox="130 130 555 500" xmlns="http://www.w3.org/2000/svg">
 <g>
  <path d="m585.32 150.58h-340.98c-9.4727 0-18.469 8.5234-18.469 17.996v54.934l-62.516 16.574c-8.9961 2.3672-13.734 11.84-11.367 20.836l88.086 327.72c2.3672 8.9961 11.84 14.68 20.836 12.312l284.15-75.773h40.727c9.4727 0 15.629-8.0508 15.629-17.523l0.003906-339.08c-0.47266-9.4727-6.6289-17.996-16.102-17.996zm-322.04 42.621h299.78v294.57h-20.836c-0.47266 0-0.47266-0.47266-0.94531-0.47266l-2.3672 0.47266h-275.63zm-37.414 70.562v135.92l-34.098-126.45zm44.52 294.57-8.9961-33.152h132.13z"/>
  <path d="m399.68 273.23c0 19.879-16.113 35.992-35.992 35.992s-35.992-16.113-35.992-35.992 16.113-35.992 35.992-35.992 35.992 16.113 35.992 35.992"/>
  <path d="m508.13 359.9c-38.832-53.988-93.297 17.996-105.14 35.992-11.84 17.996-40.254 0-64.879-10.891s-54.461 74.824-54.461 74.824l263.31 1.4219s0-46.883-38.836-101.35z"/>
 </g>
</svg>
